<?xml version="1.0" encoding="UTF-8" standalone="no"?>
<!DOCTYPE svg PUBLIC "-//W3C//DTD SVG 1.1//EN" "http://www.w3.org/Graphics/SVG/1.1/DTD/svg11.dtd">
<svg version="1.1" xmlns="http://www.w3.org/2000/svg" xmlns:xlink="http://www.w3.org/1999/xlink" preserveAspectRatio="xMidYMid meet" viewBox="56.21175733528264 41.44373673036097 531.2951167728237 531.2951167728238" width="256" height="256"><defs><path d="M587.51 307.09C587.51 453.71 468.47 572.74 321.86 572.74C175.24 572.74 56.21 453.71 56.21 307.09C56.21 160.48 175.24 41.44 321.86 41.44C468.47 41.44 587.51 160.48 587.51 307.09Z" id="bBUg8bAue"></path><path d="M293.31 223.44C293.31 213.73 285.43 205.85 275.72 205.85C266.01 205.85 258.13 213.73 258.13 223.44C258.13 233.14 266.01 241.02 275.72 241.02C285.43 241.02 293.31 233.14 293.31 223.44Z" id="dfieFawlF"></path><path d="M400.31 385.79C400.31 416.42 375.45 441.28 344.83 441.28C314.2 441.28 289.34 416.42 289.34 385.79C289.34 355.17 314.2 330.31 344.83 330.31C375.45 330.31 400.31 355.17 400.31 385.79Z" id="a3uUTrAQ8D"></path><path d="M486.13 236.24C486.13 256.74 469.48 273.39 448.98 273.39C428.48 273.39 411.84 256.74 411.84 236.24C411.84 215.74 428.48 199.1 448.98 199.1C469.48 199.1 486.13 215.74 486.13 236.24Z" id="d3dE3ElQcH"></path><path d="M441.08 175.23C441.08 192.69 426.9 206.87 409.44 206.87C391.98 206.87 377.8 192.69 377.8 175.23C377.8 157.77 391.98 143.59 409.44 143.59C426.9 143.59 441.08 157.77 441.08 175.23Z" id="lvi9uZPC"></path><path d="M375.2 165.68C375.2 150.75 363.08 138.63 348.14 138.63C333.21 138.63 321.09 150.75 321.09 165.68C321.09 180.62 333.21 192.74 348.14 192.74C363.08 192.74 375.2 180.62 375.2 165.68Z" id="a23aUW5Rto"></path><path d="M323.71 188.15C323.71 175.75 313.64 165.68 301.24 165.68C288.83 165.68 278.77 175.75 278.77 188.15C278.77 200.55 288.83 210.62 301.24 210.62C313.64 210.62 323.71 200.55 323.71 188.15Z" id="bg3xdEyHd"></path><path d="M474.77 319.97C474.77 345.53 454.01 366.29 428.45 366.29C402.89 366.29 382.14 345.53 382.14 319.97C382.14 294.41 402.89 273.66 428.45 273.66C454.01 273.66 474.77 294.41 474.77 319.97Z" id="adD2c9Qg"></path><path d="M286.89 258.71C286.89 250.78 280.44 244.34 272.51 244.34C264.57 244.34 258.13 250.78 258.13 258.71C258.13 266.65 264.57 273.09 272.51 273.09C280.44 273.09 286.89 266.65 286.89 258.71Z" id="b7a3U88E1n"></path><path d="M291.34 286.72C291.34 280.3 286.13 275.09 279.71 275.09C273.29 275.09 268.08 280.3 268.08 286.72C268.08 293.13 273.29 298.34 279.71 298.34C286.13 298.34 291.34 293.13 291.34 286.72Z" id="a4ni9aP6r2"></path><path d="M305.88 302.28C305.88 297.47 301.97 293.57 297.17 293.57C292.36 293.57 288.46 297.47 288.46 302.28C288.46 307.08 292.36 310.99 297.17 310.99C301.97 310.99 305.88 307.08 305.88 302.28Z" id="aPK2qW77k"></path><path d="M333.33 286.28C332.75 282.82 329.47 280.49 326.01 281.07C322.55 281.66 320.22 284.94 320.8 288.39C321.39 291.85 324.67 294.18 328.12 293.6C331.58 293.02 333.91 289.74 333.33 286.28Z" id="e8h2vdL9K"></path><path d="M281.8 378.19C281.8 412.61 253.86 440.55 219.44 440.55C185.02 440.55 157.07 412.61 157.07 378.19C157.07 343.77 185.02 315.82 219.44 315.82C253.86 315.82 281.8 343.77 281.8 378.19Z" id="bqAx6H7Is"></path><path d="M348.48 286.31C347.96 283.17 344.98 281.05 341.85 281.58C338.71 282.11 336.59 285.09 337.12 288.22C337.65 291.36 340.62 293.47 343.76 292.95C346.9 292.42 349.01 289.44 348.48 286.31Z" id="f2cOjMb1XG"></path><path d="M361.19 287.66C363.04 290.25 362.43 293.85 359.84 295.7C357.25 297.54 353.65 296.94 351.81 294.35C349.96 291.76 350.57 288.16 353.16 286.31C355.75 284.47 359.35 285.07 361.19 287.66Z" id="b68ctwRwk"></path><path d="M318.54 294.97C318.01 291.84 315.03 289.72 311.9 290.25C308.76 290.78 306.65 293.75 307.17 296.89C307.7 300.02 310.68 302.14 313.81 301.61C316.95 301.08 319.07 298.11 318.54 294.97Z" id="d6RwkpQ6YI"></path><path d="M321.32 309.3C320.79 306.17 317.82 304.05 314.68 304.58C311.54 305.11 309.43 308.08 309.96 311.22C310.48 314.35 313.46 316.47 316.59 315.94C319.73 315.41 321.85 312.44 321.32 309.3Z" id="bNdIZT1v0"></path><path d="M352.25 301.98C351.72 298.84 348.75 296.73 345.61 297.26C342.48 297.78 340.36 300.76 340.89 303.89C341.42 307.03 344.39 309.15 347.53 308.62C350.66 308.09 352.78 305.12 352.25 301.98Z" id="c2vm6RSvTy"></path><path d="M367.79 276.54C367.27 273.4 364.29 271.28 361.16 271.81C358.02 272.34 355.9 275.31 356.43 278.45C356.96 281.59 359.94 283.7 363.07 283.17C366.21 282.65 368.32 279.67 367.79 276.54Z" id="c2J6QRr1Tw"></path><path d="M338.63 308.66C338.05 305.21 334.77 302.87 331.31 303.45C327.86 304.04 325.52 307.32 326.1 310.77C326.69 314.23 329.97 316.57 333.42 315.98C336.88 315.4 339.22 312.12 338.63 308.66Z" id="a7kDSxzajr"></path><path d="M338.92 296.23C338.59 294.27 336.72 292.94 334.75 293.27C332.78 293.6 331.46 295.47 331.79 297.43C332.12 299.4 333.99 300.73 335.95 300.4C337.92 300.07 339.25 298.2 338.92 296.23Z" id="dj9RCxE4Z"></path><path d="M327.41 299.68C327.08 297.71 325.22 296.39 323.25 296.72C321.28 297.05 319.95 298.92 320.28 300.88C320.62 302.85 322.48 304.18 324.45 303.85C326.42 303.52 327.75 301.65 327.41 299.68Z" id="cDI36WAfO"></path></defs><g visibility="inherit"><g visibility="inherit"><use xlink:href="#bBUg8bAue" opacity="1" fill="#666666" fill-opacity="0.66"></use></g><g visibility="inherit"><use xlink:href="#dfieFawlF" opacity="1" fill="#ffffff" fill-opacity="1"></use></g><g visibility="inherit"><use xlink:href="#a3uUTrAQ8D" opacity="1" fill="#fcd552" fill-opacity="1"></use></g><g visibility="inherit"><use xlink:href="#d3dE3ElQcH" opacity="1" fill="#ffffff" fill-opacity="1"></use></g><g visibility="inherit"><use xlink:href="#lvi9uZPC" opacity="1" fill="#ffffff" fill-opacity="1"></use></g><g visibility="inherit"><use xlink:href="#a23aUW5Rto" opacity="1" fill="#ffffff" fill-opacity="1"></use></g><g visibility="inherit"><use xlink:href="#bg3xdEyHd" opacity="1" fill="#ffffff" fill-opacity="1"></use></g><g visibility="inherit"><use xlink:href="#adD2c9Qg" opacity="1" fill="#ffffff" fill-opacity="1"></use></g><g visibility="inherit"><use xlink:href="#b7a3U88E1n" opacity="1" fill="#ffffff" fill-opacity="1"></use></g><g visibility="inherit"><use xlink:href="#a4ni9aP6r2" opacity="1" fill="#ffffff" fill-opacity="1"></use></g><g visibility="inherit"><use xlink:href="#aPK2qW77k" opacity="1" fill="#ffffff" fill-opacity="1"></use></g><g visibility="inherit"><use xlink:href="#e8h2vdL9K" opacity="1" fill="#ffffff" fill-opacity="1"></use></g><g visibility="inherit"><use xlink:href="#bqAx6H7Is" opacity="1" fill="#ffffff" fill-opacity="1"></use></g><g visibility="inherit"><use xlink:href="#f2cOjMb1XG" opacity="1" fill="#ffffff" fill-opacity="1"></use></g><g visibility="inherit"><use xlink:href="#b68ctwRwk" opacity="1" fill="#ffffff" fill-opacity="1"></use></g><g visibility="inherit"><use xlink:href="#d6RwkpQ6YI" opacity="1" fill="#ffffff" fill-opacity="1"></use></g><g visibility="inherit"><use xlink:href="#bNdIZT1v0" opacity="1" fill="#ffffff" fill-opacity="1"></use></g><g visibility="inherit"><use xlink:href="#c2vm6RSvTy" opacity="1" fill="#ffffff" fill-opacity="1"></use></g><g visibility="inherit"><use xlink:href="#c2J6QRr1Tw" opacity="1" fill="#ffffff" fill-opacity="1"></use></g><g visibility="inherit"><use xlink:href="#a7kDSxzajr" opacity="1" fill="#ffffff" fill-opacity="1"></use></g><g visibility="inherit"><use xlink:href="#dj9RCxE4Z" opacity="1" fill="#ffffff" fill-opacity="1"></use></g><g visibility="inherit"><use xlink:href="#cDI36WAfO" opacity="1" fill="#ffffff" fill-opacity="1"></use></g></g></svg>